<?xml version="1.0" encoding="iso-8859-1"?>
<!-- Generator: Adobe Illustrator 19.0.0, SVG Export Plug-In . SVG Version: 6.00 Build 0)  -->
<svg version="1.1" id="Layer_1" xmlns="http://www.w3.org/2000/svg" xmlns:xlink="http://www.w3.org/1999/xlink" x="0px" y="0px"
	 viewBox="0 0 511.999 511.999" style="enable-background:new 0 0 511.999 511.999;" xml:space="preserve">
<g>
	<path style="fill:#26B99A;" d="M235.44,10.661l-73.984,102.444c-8.43,11.67-0.088,27.992,14.31,27.992h53.751v97.103h-79.448
		c-58.509,0-105.931,47.422-105.931,105.931v35.31c-25.212,10.214-43.202,33.315-44.103,61.793
		c-1.103,34.86,24.241,64.018,58.668,69.641c44.27,7.239,82.538-26.739,82.538-69.641c0-29.634-18.273-51.315-44.138-61.793v-35.31
		c0-29.255,23.711-52.966,52.965-52.966h79.448v88.276c-25.212,10.214-43.202,33.315-44.103,61.793
		c-1.103,34.86,24.241,64.018,58.668,69.641c44.27,7.239,82.538-26.739,82.538-69.641c0-29.634-18.273-51.315-44.138-61.793v-88.276
		h79.448c29.255,0,52.966,23.711,52.966,52.966v35.31c-25.212,10.214-43.202,33.315-44.103,61.793
		c-1.103,34.86,24.241,64.018,58.668,69.641c44.27,7.239,82.538-26.739,82.538-69.641c0-29.634-18.273-51.315-44.138-61.793v-35.31
		c0-58.509-47.431-105.931-105.931-105.931H291.31v-97.103h44.915c14.407,0,22.749-16.322,14.318-27.992L276.559,10.661
		C266.434-3.358,245.565-3.358,235.44,10.661"/>
</g>
<g>
</g>
<g>
</g>
<g>
</g>
<g>
</g>
<g>
</g>
<g>
</g>
<g>
</g>
<g>
</g>
<g>
</g>
<g>
</g>
<g>
</g>
<g>
</g>
<g>
</g>
<g>
</g>
<g>
</g>
</svg>
