<?xml version="1.0" encoding="UTF-8"?>
<svg id="Layer_1" data-name="Layer 1" xmlns="http://www.w3.org/2000/svg" viewBox="0 0 256 256">
  <defs>
    <style>
      .cls-1 {
        fill: #fff;
      }
    </style>
  </defs>
  <circle cx="128" cy="128" r="128"/>
  <g>
    <path class="cls-1" d="M200.37,125.34l-.16-2.23c-2.17-30.69-23.85-56.6-53.53-64.46-.98-.26-1.97-.29-2.85.27-.71.44-1.39,1.51-1.39,2.53v19.52c0,1.16.59,2.45,1.79,2.9,12.63,4.72,22.85,14.47,27.96,27.03,7.24,17.81,2.71,38.37-11.21,51.54l-12.94-12.92c-.91-.91-2.24-1.11-3.3-.7s-1.96,1.43-1.96,2.81v43.16c0,1.94,1.4,3.3,3.31,3.3h43.17c1.31,0,2.42-1.07,2.77-1.97.47-1.22.15-2.46-.78-3.39l-12.7-12.69c13.08-12.63,20.74-29.47,21.81-47.41l.02-7.28Z"/>
    <path class="cls-1" d="M77.72,75.7c-13.22,12.82-20.8,29.62-21.8,47.68l-.04,6.43.21,3.08c2.05,30.59,23.94,56.34,53.5,64.17.98.26,1.97.29,2.86-.27.71-.44,1.39-1.51,1.39-2.53v-19.51c0-1.32-.69-2.5-1.99-2.99-12.54-4.73-22.69-14.48-27.76-26.95-7.25-17.83-2.71-38.35,11.21-51.55l12.94,12.92c.91.9,2.23,1.11,3.3.7.98-.38,1.95-1.46,1.95-2.81v-43.16c0-1.77-1.25-3.29-3.08-3.29h-43.4c-1.31,0-2.43,1.06-2.77,1.96-.47,1.23-.14,2.45.79,3.39l12.68,12.71Z"/>
  </g>
</svg>