<?xml version="1.0" encoding="utf-8"?>
<!-- Generator: Adobe Illustrator 23.0.0, SVG Export Plug-In . SVG Version: 6.00 Build 0)  -->
<svg version="1.1" id="Layer_1" xmlns="http://www.w3.org/2000/svg" xmlns:xlink="http://www.w3.org/1999/xlink" x="0px" y="0px"
	 viewBox="0 0 128 128" style="enable-background:new 0 0 128 128;" xml:space="preserve">
<style type="text/css">
	.st0{fill:#FF2121;fill-opacity:0.4;}
	.st1{fill:#FF2121;fill-opacity:0.52;}
	.st2{fill:#FF2121;fill-opacity:0.77;}
	.st3{fill:#FF2121;fill-opacity:0.83;}
	.st4{fill:#FF2121;fill-opacity:0.93;}
	.st5{fill:#FF2121;fill-opacity:0.9;}
	.st6{fill:#FF2121;fill-opacity:0.78;}
	.st7{fill:#FF2121;fill-opacity:0.63;}
	.st8{fill:#FF2121;fill-opacity:0.86;}
	.st9{fill:#FFFFFF;}
	.st10{font-family:'Roboto-Bold';}
	.st11{font-size:22.3471px;}
</style>
<g>
	<path class="st0" d="M107.36,24.25L64,0v24.25l21.68,12.12L107.36,24.25z"/>
	<path class="st1" d="M20.65,24.25L64,0v24.25L42.32,36.38L20.65,24.25z"/>
	<path class="st2" d="M85.68,36.38L64,48.5V24.25L85.68,36.38z"/>
	<path class="st3" d="M42.32,36.38L64,48.5V24.25L42.32,36.38z"/>
	<path class="st4" d="M64,72.75V48.5l21.68,12.13L64,72.75L64,72.75z"/>
	<path class="st5" d="M64,72.75V48.5L42.32,60.62L64,72.75z"/>
	<path class="st6" d="M64,97V72.74L42.32,60.62L20.64,72.74L64,97z"/>
	<path class="st7" d="M107.36,48.5v24.25L85.68,60.63L107.36,48.5z"/>
	<path class="st7" d="M20.65,48.5v24.25l21.68-12.13L20.65,48.5z"/>
	<path class="st8" d="M107.35,48.5L85.68,36.37L64,48.5l21.68,12.13L107.35,48.5z"/>
	<path class="st8" d="M20.65,48.5l21.68-12.12L64.01,48.5L42.32,60.62L20.65,48.5z"/>
	<path class="st7" d="M107.36,24.25V48.5L85.68,36.37L107.36,24.25z"/>
	<path class="st7" d="M20.65,24.25V48.5l21.68-12.13L20.65,24.25z"/>
	<path class="st3" d="M64,97V72.75l21.68-12.13l21.68,12.13L64,97L64,97z"/>
</g>
<text transform="matrix(1 0 0 1 9.9961 123.748)" class="st9 st10 st11">MATERIAL</text>
</svg>
